<svg xmlns="http://www.w3.org/2000/svg" viewBox="0 0 128 128" fill='#008009'><path d="M108.42 55.84H44.26a9 9 0 0 0-8.94 8.94v20.67H19.58a9 9 0 0 0-8.93 8.94v14.8a9 9 0 0 0 8.93 8.94h6.47c2.2 7.332 9.928 11.491 17.26 9.291a13.861 13.861 0 0 0 9.29-9.291h22.8c2.2 7.332 9.928 11.491 17.26 9.291a13.861 13.861 0 0 0 9.29-9.291h1.53c7.658-.006 13.864-6.212 13.87-13.87V64.78a9 9 0 0 0-8.93-8.94zm.93 8.94v20.67H92.68V63.84h15.74a.94.94 0 0 1 .93.94zM68 85.45V63.84h16.68v21.61zM44.26 63.84H60v21.61H43.32V64.78c0-.52.42-.94.94-.94zM39.32 120a5.87 5.87 0 1 1 5.87-5.87 5.88 5.88 0 0 1-5.87 5.87zm49.36 0a5.87 5.87 0 1 1 5.87-5.87 5.87 5.87 0 0 1-5.87 5.87zm14.8-9.87H102c-2.2-7.332-9.928-11.491-17.26-9.291a13.861 13.861 0 0 0-9.29 9.291H52.6c-2.2-7.332-9.928-11.491-17.26-9.291a13.861 13.861 0 0 0-9.29 9.291h-6.47a.94.94 0 0 1-.93-.94v-14.8a.94.94 0 0 1 .93-.94h89.77v10.81a5.87 5.87 0 0 1-5.87 5.87zm-92.29-82a4 4 0 0 1 5.467-1.451l.003.001 6.69 3.88 12.33-6-13.79-8a4 4 0 0 1 4-6.91l18.4 10.73 13.07-6.4a4.003 4.003 0 1 1 3.52 7.19l-36 17.6a4 4 0 0 1-3.76-.13l-8.54-5a4 4 0 0 1-1.39-5.52z"></path></svg>