<svg xmlns="http://www.w3.org/2000/svg" viewBox="0 0 24 24" fill='#008009'><path d="M9.28 21.961a2.837 2.837 0 0 0 5.445 0 .75.75 0 1 0-1.44-.422 1.337 1.337 0 0 1-2.565 0 .75.75 0 1 0-1.44.422zM12.75 3V.75a.75.75 0 0 0-1.5 0V3a.75.75 0 0 0 1.5 0zm-.75.75a6.75 6.75 0 0 1 6.75 6.75c0 3.154.29 5.436.785 6.994.323 1.02.684 1.59.995 1.84L21 18H3l.59 1.212c.248-.315.572-.958.88-2 .49-1.66.78-3.872.78-6.712A6.75 6.75 0 0 1 12 3.75zm0-1.5a8.25 8.25 0 0 0-8.25 8.25c0 2.702-.272 4.772-.72 6.288-.254.864-.493 1.336-.62 1.5A.75.75 0 0 0 3 19.5h18c.708 0 1.022-.892.47-1.335.019.016-.008-.015-.07-.113-.14-.223-.29-.553-.435-1.012-.443-1.396-.715-3.529-.715-6.54A8.25 8.25 0 0 0 12 2.25z"></path></svg>