<svg xmlns="http://www.w3.org/2000/svg" viewBox="0 0 24 24" fill='#008009'><path d="M21.75 21h-18l.75.75v-6l-.75.75h18a.75.75 0 0 1 .75.75v3a.75.75 0 0 1-.75.75zm0 1.5A2.25 2.25 0 0 0 24 20.25v-3A2.25 2.25 0 0 0 21.75 15h-18a.75.75 0 0 0-.75.75v6c0 .414.336.75.75.75h18zM15 15.75v6a.75.75 0 0 0 1.5 0v-6a.75.75 0 0 0-1.5 0zm-15 0v6a.75.75 0 0 0 1.5 0v-6a.75.75 0 0 0-1.5 0zm7.5-13.5A3.75 3.75 0 0 1 3.75 6 3.75 3.75 0 0 0 0 9.75a.75.75 0 0 0 1.5 0A2.25 2.25 0 0 1 3.75 7.5C6.65 7.5 9 5.15 9 2.25a.75.75 0 0 0-1.5 0zm4.5 0a8.25 8.25 0 0 1-8.25 8.25.75.75 0 0 0 0 1.5c5.385 0 9.75-4.365 9.75-9.75a.75.75 0 0 0-1.5 0z"></path></svg>