<svg xmlns="http://www.w3.org/2000/svg" viewBox="0 0 24 24" fill='#008009'><path d="M13.125 3.56a1.875 1.875 0 1 1-3.75 0 1.875 1.875 0 0 1 3.75 0zm1.5 0a3.375 3.375 0 1 0-6.75 0 3.375 3.375 0 0 0 6.75 0zm3.454 18.335l-1.836-3.67a.75.75 0 0 0-.671-.415H11.25a.75.75 0 0 1-.75-.75v-7.5a.75.75 0 0 1 1.5 0v6c0 .414.336.75.75.75h3.75a.75.75 0 0 1 .671.415l2.25 4.5a.75.75 0 0 1-1.342.67zm-1.342.671a2.25 2.25 0 1 0 4.026-2.012l-2.25-4.5A2.25 2.25 0 0 0 16.5 14.81h-3.75l.75.75v-6a2.25 2.25 0 0 0-4.5 0v7.5a2.25 2.25 0 0 0 2.25 2.25h4.322l-.67-.415 1.835 3.672zm-4.362-.958a5.25 5.25 0 0 1-5.25-9.096.75.75 0 1 0-.75-1.299 6.75 6.75 0 1 0 6.75 11.694.75.75 0 1 0-.75-1.3z"></path></svg>