<svg xmlns="http://www.w3.org/2000/svg" viewBox="0 0 24 24" fill='#008009'><path d="M9.591 4.4h7.368a3.35 3.35 0 0 1 3.303 2.767l2.246 12.737a.26.26 0 0 1 .257-.304H.75l.75.75a9.073 9.073 0 0 1 9.073-9.073h11.038a.75.75 0 0 0 0-1.5H10.574h-.001C4.733 9.777 0 14.511 0 20.35c0 .414.336.75.75.75h22.014a1.24 1.24 0 0 0 1.221-1.458L21.74 6.906a4.85 4.85 0 0 0-4.78-4.006H9.59a.75.75 0 0 0 0 1.5zM7.125 16.6a.375.375 0 1 1 0-.75.375.375 0 0 1 0 .75.75.75 0 0 0 0-1.5 1.125 1.125 0 1 0 0 2.25 1.125 1.125 0 0 0 0-2.25.75.75 0 0 0 0 1.5zm5.25 0a.375.375 0 1 1 0-.75.375.375 0 0 1 0 .75.75.75 0 0 0 0-1.5 1.125 1.125 0 1 0 0 2.25 1.125 1.125 0 0 0 0-2.25.75.75 0 0 0 0 1.5zm5.25 0a.375.375 0 1 1 0-.75.375.375 0 0 1 0 .75.75.75 0 0 0 0-1.5 1.125 1.125 0 1 0 0 2.25 1.125 1.125 0 0 0 0-2.25.75.75 0 0 0 0 1.5z"></path></svg>