<svg xmlns="http://www.w3.org/2000/svg" viewBox="0 0 24 24" fill='#008009'><path d="M4.5 11.579a8.25 8.25 0 1 1 16.5 0l.75-.75h-18l.75.75zm-1.5 0c0 .414.336.75.75.75h18a.75.75 0 0 0 .75-.75c0-5.385-4.365-9.75-9.75-9.75S3 6.194 3 11.579zm-.75.75h21a.75.75 0 0 0 0-1.5h-21a.75.75 0 0 0 0 1.5zM12 1.079v1.5a.75.75 0 0 0 1.5 0v-1.5a.75.75 0 0 0-1.5 0zM1.273 22.616l3.75-3.65-1.011.032 5.25 4.5a.75.75 0 0 0 .927.039l12.062-8.711a1.92 1.92 0 0 0-.136-3.203 5.25 5.25 0 0 0-5.25-.088l-2.929 1.625a3.848 3.848 0 0 1-4.543-.646l-.587-.587a3.75 3.75 0 0 0-4.326-.698 1.606 1.606 0 0 0-.417 2.57l.459.46a3.75 3.75 0 0 1 1.02 3.384l-.371 1.842a.75.75 0 0 0 1.47.296l.372-1.843a5.25 5.25 0 0 0-1.43-4.74l-.459-.458a.106.106 0 0 1 .028-.17 2.25 2.25 0 0 1 2.595.42l.59.588a5.351 5.351 0 0 0 6.322.897l2.934-1.628a3.75 3.75 0 0 1 3.75.062.42.42 0 0 1 .03.7L9.311 22.322l.927.039-5.25-4.5a.75.75 0 0 0-1.011.032l-3.75 3.65a.75.75 0 1 0 1.046 1.074z"></path></svg>