<svg xmlns="http://www.w3.org/2000/svg" viewBox="0 0 128 128" fill='#008009'><path d="M48.25 4v36a20.13 20.13 0 0 1-16 19.59V124a4 4 0 0 1-8 0V59.58A20.09 20.09 0 0 1 8.25 40V4a4 4 0 0 1 8 0v36a12 12 0 0 0 8 11.28V4a4 4 0 0 1 8 0v47.29a12.1 12.1 0 0 0 8-11.3V4a4 4 0 0 1 8 0zm65 120a4 4 0 0 1-4 4H77.28a4 4 0 0 1 0-8h12V95.7c-14.139-2.16-24.023-15.135-22.35-29.34l6-59.17a8 8 0 0 1 8-7.19h24.67a8 8 0 0 1 8 7.19l6 59.23c1.633 14.181-8.24 27.115-22.35 29.28V120h12a4 4 0 0 1 3.96 4zM80.89 8l-2.43 24H108l-2.4-24zM83 84.88A18.49 18.49 0 0 0 93.17 88h.15a18.48 18.48 0 0 0 10.17-3.12 18.48 18.48 0 0 0 8.12-17.59L108.85 40H77.64l-2.76 27.23A18.49 18.49 0 0 0 83 84.88z"></path></svg>