<svg xmlns="http://www.w3.org/2000/svg" viewBox="0 0 24 24"><path d="M11.25.75v7.5a.75.75 0 0 0 1.5 0V.75a.75.75 0 0 0-1.5 0zm4.031.914l-3.75 3h.938l-3.75-3a.75.75 0 1 0-.938 1.172l3.75 3a.75.75 0 0 0 .938 0l3.75-3a.75.75 0 1 0-.938-1.172zM1.883 7.024l6.495 3.75a.75.75 0 0 0 .75-1.299l-6.495-3.75a.75.75 0 1 0-.75 1.3zM4.69 3.99l.723 4.748.468-.812-4.473 1.748a.75.75 0 0 0 .546 1.398l4.473-1.748a.75.75 0 0 0 .468-.812l-.723-4.748a.75.75 0 1 0-1.482.226zM2.632 18.274l6.495-3.75a.75.75 0 1 0-.75-1.298l-6.495 3.75a.75.75 0 1 0 .75 1.299zm-1.224-3.948l4.473 1.748-.468-.812-.723 4.748a.75.75 0 0 0 1.482.226l.723-4.748a.75.75 0 0 0-.468-.812l-4.473-1.748a.75.75 0 0 0-.546 1.398zM12.75 23.25v-7.5a.75.75 0 0 0-1.5 0v7.5a.75.75 0 0 0 1.5 0zm-4.031-.914l3.75-3h-.938l3.75 3a.75.75 0 0 0 .937-1.172l-3.75-3a.75.75 0 0 0-.937 0l-3.75 3a.75.75 0 0 0 .938 1.172zm13.399-5.36l-6.495-3.75a.75.75 0 0 0-.75 1.298l6.495 3.75a.75.75 0 0 0 .75-1.299zm-2.807 3.034l-.724-4.748-.468.812 4.473-1.748a.75.75 0 0 0-.546-1.398l-4.473 1.748a.75.75 0 0 0-.468.812l.723 4.748a.75.75 0 0 0 1.483-.226zm2.057-14.285l-6.495 3.75a.75.75 0 0 0 .75 1.3l6.495-3.75a.75.75 0 0 0-.75-1.3zm1.224 3.95l-4.473-1.749.468.812.724-4.748a.75.75 0 0 0-1.483-.226l-.723 4.748a.75.75 0 0 0 .468.812l4.473 1.748a.75.75 0 0 0 .546-1.398zM11.625 7.6L8.377 9.475a.75.75 0 0 0-.375.65v3.75a.75.75 0 0 0 .375.65l3.248 1.874a.75.75 0 0 0 .75 0l3.248-1.875a.75.75 0 0 0 .375-.649v-3.75a.75.75 0 0 0-.375-.65L12.375 7.6a.75.75 0 0 0-.75 0zm.75 1.3h-.75l3.248 1.874-.375-.649v3.75l.375-.65-3.248 1.876h.75l-3.248-1.876.375.65v-3.75l-.375.65L12.375 8.9z"></path></svg>