<svg xmlns="http://www.w3.org/2000/svg" viewBox="0 0 24 24"><path d="M23.468 12.546a3 3 0 0 0-4.172-.765l-4.73 3.357L15 15H5.25a3 3 0 1 0 0 6h10.5c.755 0 1.48-.287 2.032-.801l-.511-.549.434.612 5.007-3.55a2.998 2.998 0 0 0 .756-4.166zm-1.235.852a1.5 1.5 0 0 1-.381 2.085l-5.015 3.555-.077.063a1.485 1.485 0 0 1-1.01.399H5.25a1.5 1.5 0 0 1 0-3H15a.75.75 0 0 0 .434-.138l4.722-3.352a1.498 1.498 0 0 1 2.078.388zM5.27 20.068l-.75 3a.75.75 0 0 0 1.456.364l.75-3a.75.75 0 0 0-1.456-.364zm10.557.517l1.5 3a.75.75 0 1 0 1.342-.67l-1.5-3a.75.75 0 1 0-1.342.67zM8.25 5.946a1.5 1.5 0 1 1-3 0 1.5 1.5 0 0 1 3 0zm1.5 0a3 3 0 1 0-6 0 3 3 0 0 0 6 0zm1.5.75h1.5a.75.75 0 0 0 0-1.5h-1.5a.75.75 0 0 0 0 1.5zm-9-1.5H.75a.75.75 0 0 0 0 1.5h1.5a.75.75 0 0 0 0-1.5zm7.4-2.772l.75-1.299a.75.75 0 0 0-1.3-.75l-.75 1.299a.75.75 0 1 0 1.3.75zm-5.8 7.044l-.75 1.299a.75.75 0 1 0 1.3.75l.75-1.299a.75.75 0 1 0-1.3-.75zm1.3-7.794L4.4.375a.75.75 0 1 0-1.3.75l.75 1.299a.75.75 0 1 0 1.3-.75zm3.2 8.544l.75 1.299a.75.75 0 0 0 1.3-.75l-.75-1.299a.75.75 0 1 0-1.3.75z"></path></svg>