<svg class="bk-icon -streamline-resort" fill="" size="medium" width="16" height="16" viewBox="0 0 24 24"><path d="M.768 11.413l1.5 6.75a.75.75 0 0 0 1.464-.326l-1.5-6.75a.75.75 0 0 0-1.464.326zM2.22 23.456l1.5-5.25L3 18.75h3a.75.75 0 0 1 .75.75v3.75a.75.75 0 0 0 1.5 0V19.5A2.25 2.25 0 0 0 6 17.25H3a.75.75 0 0 0-.721.544l-1.5 5.25a.75.75 0 1 0 1.442.412zm19.547-12.369l-1.5 6.75a.75.75 0 1 0 1.464.326l1.5-6.75a.75.75 0 1 0-1.464-.326zm1.453 11.957l-1.5-5.25A.75.75 0 0 0 21 17.25h-3a2.25 2.25 0 0 0-2.25 2.25v3.75a.75.75 0 0 0 1.5 0V19.5a.75.75 0 0 1 .75-.75h3l-.721-.544 1.5 5.25a.75.75 0 1 0 1.442-.412zM11.25 6.75v16.5a.75.75 0 0 0 1.5 0V6.75a.75.75 0 0 0-1.5 0zm-4.5 7.5h10.5a.75.75 0 0 0 0-1.5H6.75a.75.75 0 0 0 0 1.5zM1.5 6l10.064-4.37c.297-.161.575-.161.803-.033l10.178 4.425L22.5 6H1.5zm0 1.5h21a1.5 1.5 0 0 0 .689-2.832L13.034.255c-.616-.35-1.452-.35-2.136.034L.858 4.646c-.544.28-.856.792-.857 1.352A1.5 1.5 0 0 0 1.499 7.5z"></path></svg>