<svg xmlns="http://www.w3.org/2000/svg" viewBox="0 0 24 24"><path d="M23.883 23.317l.1-1.122a3.75 3.75 0 0 0-2.921-4l-3.651-.81.587.732v-5.742a2.627 2.627 0 0 0-2.628-2.626c-.05 0-.05 0-.098.002-1.373-.008-2.517 1.125-2.524 2.53 0 .064 0 .064.003.13l-.001 9.165 1.2-.6-1.477-1.108a2.283 2.283 0 0 0-3.197 3.194l.476.634a.75.75 0 0 0 1.2-.9l-.475-.633a.782.782 0 0 1 1.097-1.094l1.476 1.107a.75.75 0 0 0 1.2-.6v-9.2l-.002-.088a1.043 1.043 0 0 1 1.048-1.038l.075-.001c.622 0 1.127.504 1.127 1.126v5.742a.75.75 0 0 0 .587.732l3.651.811a2.25 2.25 0 0 1 1.753 2.4l-.1 1.123a.75.75 0 1 0 1.494.134zM6.75 18.57h-4.5a.75.75 0 0 1-.75-.75V2.25a.75.75 0 0 1 .75-.75h13.5a.75.75 0 0 1 .75.75V7.5a.75.75 0 0 0 1.5 0V2.25A2.25 2.25 0 0 0 15.75 0H2.25A2.25 2.25 0 0 0 0 2.25v15.57a2.25 2.25 0 0 0 2.25 2.25h4.5a.75.75 0 0 0 0-1.5zm4.125-12.195a1.875 1.875 0 1 1-3.75 0 1.875 1.875 0 0 1 3.75 0zm1.5 0a3.375 3.375 0 1 0-6.75 0 3.375 3.375 0 0 0 6.75 0zm-1.027 3.17A5.296 5.296 0 0 0 8.998 9a5.235 5.235 0 0 0-4.93 3.502 5.278 5.278 0 0 0-.306 1.744.75.75 0 0 0 1.5.008c.002-.427.077-.85.22-1.252a3.736 3.736 0 0 1 3.52-2.502 3.796 3.796 0 0 1 1.684.39.75.75 0 0 0 .662-1.345zM4.5 15h6a.75.75 0 0 0 0-1.5h-6a.75.75 0 0 0 0 1.5z"></path></svg>