<svg xmlns="http://www.w3.org/2000/svg" viewBox="0 0 24 24" fill="#fff" width="20px" height="20px"><path d="M20.505 7.5l-15.266.022.672.415-1.1-2.2a.75.75 0 0 0-.638-.414l-2.293-.1C.82 5.228-.003 6.06.003 7.083c.002.243.051.484.146.709l2.072 4.68a2.947 2.947 0 0 0 2.701 1.778h4.043l-.676-1.075-2.484 5.168A1.831 1.831 0 0 0 7.449 21h2.099a1.85 1.85 0 0 0 1.419-.664l5.165-6.363-.582.277h4.956c1.82.09 3.399-1.341 3.49-3.198l.004-.134a3.426 3.426 0 0 0-3.44-3.419l-.074.001zm.02 1.5h.042a1.924 1.924 0 0 1 1.933 1.914l-.002.065a1.866 1.866 0 0 1-1.955 1.772l-4.993-.001a.75.75 0 0 0-.582.277l-5.16 6.355a.346.346 0 0 1-.26.118h-2.1a.336.336 0 0 1-.3-.49l2.493-5.185a.75.75 0 0 0-.676-1.075H4.924a1.45 1.45 0 0 1-1.328-.878l-2.07-4.676a.35.35 0 0 1 .326-.474l2.255.1-.638-.415 1.1 2.2a.75.75 0 0 0 .672.415L20.507 9zM16.323 7.76l-2.992-4.02A1.851 1.851 0 0 0 11.85 3H9.783a1.85 1.85 0 0 0-1.654 2.672l1.439 2.91a.75.75 0 0 0 1.344-.664L9.472 5.007a.351.351 0 0 1 .312-.507h2.066a.35.35 0 0 1 .279.14l2.99 4.017a.75.75 0 1 0 1.203-.896z"></path></svg>