<svg xmlns="http://www.w3.org/2000/svg" viewBox="0 0 24 24" data-rtl-flip="true"><path d="M.75 4.5h16.34a3.5 3.5 0 1 0 0-1.5H.75a.75.75 0 0 0 0 1.5zM20.5 1.75a2 2 0 1 1-2 2 2 2 0 0 1 2-2zm2.75 17.75H9.46a3.5 3.5 0 0 0-6.83 0H.75a.75.75 0 0 0 0 1.5h1.88a3.5 3.5 0 0 0 6.83 0h13.79a.75.75 0 0 0 0-1.5zm-17.2 2.75a2 2 0 1 1 2-2 2 2 0 0 1-2 2zM23.25 11h-7.84a3.49 3.49 0 0 0-6.82 0H.75a.75.75 0 0 0 0 1.5h7.84a3.49 3.49 0 0 0 6.82 0h7.84a.75.75 0 0 0 0-1.5zM12 13.75a2 2 0 1 1 2-2 2 2 0 0 1-2 2z"></path></svg>